<mxfile host="app.diagrams.net" modified="2021-01-25T00:35:56.043Z" agent="5.0 (Windows NT 10.0; Win64; x64) AppleWebKit/537.36 (KHTML, like Gecko) Chrome/88.0.4324.96 Safari/537.36 Edg/88.0.705.50" etag="c05dnaL5v1S0-J0tBQyp" version="14.2.7" type="github">
  <diagram id="C5RBs43oDa-KdzZeNtuy" name="Page-1">
    <mxGraphModel dx="981" dy="581" grid="1" gridSize="10" guides="1" tooltips="1" connect="1" arrows="1" fold="1" page="1" pageScale="1" pageWidth="827" pageHeight="1169" math="0" shadow="0">
      <root>
        <mxCell id="WIyWlLk6GJQsqaUBKTNV-0" />
        <mxCell id="WIyWlLk6GJQsqaUBKTNV-1" parent="WIyWlLk6GJQsqaUBKTNV-0" />
        <mxCell id="0bC_-t_Q4zFDjWK14RuH-0" value="" style="rounded=0;html=1;jettySize=auto;orthogonalLoop=1;fontSize=11;endArrow=block;endFill=0;endSize=8;strokeWidth=1;shadow=0;labelBackgroundColor=none;edgeStyle=orthogonalEdgeStyle;" edge="1" parent="WIyWlLk6GJQsqaUBKTNV-1" source="0bC_-t_Q4zFDjWK14RuH-1" target="0bC_-t_Q4zFDjWK14RuH-4">
          <mxGeometry relative="1" as="geometry" />
        </mxCell>
        <mxCell id="0bC_-t_Q4zFDjWK14RuH-1" value="初始化" style="rounded=1;whiteSpace=wrap;html=1;fontSize=12;glass=0;strokeWidth=1;shadow=0;" vertex="1" parent="WIyWlLk6GJQsqaUBKTNV-1">
          <mxGeometry x="160" y="100" width="120" height="40" as="geometry" />
        </mxCell>
        <mxCell id="0bC_-t_Q4zFDjWK14RuH-2" value="No" style="rounded=0;html=1;jettySize=auto;orthogonalLoop=1;fontSize=11;endArrow=block;endFill=0;endSize=8;strokeWidth=1;shadow=0;labelBackgroundColor=none;edgeStyle=orthogonalEdgeStyle;entryX=0;entryY=0.5;entryDx=0;entryDy=0;" edge="1" parent="WIyWlLk6GJQsqaUBKTNV-1" source="0bC_-t_Q4zFDjWK14RuH-4" target="0bC_-t_Q4zFDjWK14RuH-4">
          <mxGeometry x="-0.92" y="10" relative="1" as="geometry">
            <mxPoint as="offset" />
            <mxPoint x="220" y="400" as="targetPoint" />
            <Array as="points">
              <mxPoint x="220" y="330" />
              <mxPoint x="130" y="330" />
              <mxPoint x="130" y="250" />
            </Array>
          </mxGeometry>
        </mxCell>
        <mxCell id="0bC_-t_Q4zFDjWK14RuH-3" value="Yes" style="edgeStyle=orthogonalEdgeStyle;rounded=0;html=1;jettySize=auto;orthogonalLoop=1;fontSize=11;endArrow=block;endFill=0;endSize=8;strokeWidth=1;shadow=0;labelBackgroundColor=none;" edge="1" parent="WIyWlLk6GJQsqaUBKTNV-1" source="0bC_-t_Q4zFDjWK14RuH-4">
          <mxGeometry y="10" relative="1" as="geometry">
            <mxPoint as="offset" />
            <mxPoint x="320" y="250" as="targetPoint" />
          </mxGeometry>
        </mxCell>
        <mxCell id="0bC_-t_Q4zFDjWK14RuH-4" value="按钮是否按下" style="rhombus;whiteSpace=wrap;html=1;shadow=0;fontFamily=Helvetica;fontSize=12;align=center;strokeWidth=1;spacing=6;spacingTop=-4;" vertex="1" parent="WIyWlLk6GJQsqaUBKTNV-1">
          <mxGeometry x="170" y="210" width="100" height="80" as="geometry" />
        </mxCell>
        <mxCell id="0bC_-t_Q4zFDjWK14RuH-5" value="" style="edgeStyle=orthogonalEdgeStyle;rounded=0;orthogonalLoop=1;jettySize=auto;html=1;entryX=0.5;entryY=0;entryDx=0;entryDy=0;" edge="1" parent="WIyWlLk6GJQsqaUBKTNV-1" source="0bC_-t_Q4zFDjWK14RuH-6" target="0bC_-t_Q4zFDjWK14RuH-1">
          <mxGeometry relative="1" as="geometry">
            <mxPoint x="270" y="90" as="targetPoint" />
          </mxGeometry>
        </mxCell>
        <mxCell id="0bC_-t_Q4zFDjWK14RuH-6" value="上电" style="rounded=1;whiteSpace=wrap;html=1;fontSize=12;glass=0;strokeWidth=1;shadow=0;" vertex="1" parent="WIyWlLk6GJQsqaUBKTNV-1">
          <mxGeometry x="160" y="20" width="120" height="40" as="geometry" />
        </mxCell>
        <mxCell id="0bC_-t_Q4zFDjWK14RuH-7" value="" style="edgeStyle=orthogonalEdgeStyle;rounded=0;orthogonalLoop=1;jettySize=auto;html=1;" edge="1" parent="WIyWlLk6GJQsqaUBKTNV-1" source="0bC_-t_Q4zFDjWK14RuH-13" target="0bC_-t_Q4zFDjWK14RuH-14">
          <mxGeometry relative="1" as="geometry" />
        </mxCell>
        <mxCell id="0bC_-t_Q4zFDjWK14RuH-8" value="Open" style="edgeLabel;html=1;align=center;verticalAlign=middle;resizable=0;points=[];" vertex="1" connectable="0" parent="0bC_-t_Q4zFDjWK14RuH-7">
          <mxGeometry x="-0.2531" y="2" relative="1" as="geometry">
            <mxPoint x="45.18" y="71.97" as="offset" />
          </mxGeometry>
        </mxCell>
        <mxCell id="0bC_-t_Q4zFDjWK14RuH-9" value="" style="edgeStyle=orthogonalEdgeStyle;rounded=0;orthogonalLoop=1;jettySize=auto;html=1;exitX=0.5;exitY=1;exitDx=0;exitDy=0;" edge="1" parent="WIyWlLk6GJQsqaUBKTNV-1" source="0bC_-t_Q4zFDjWK14RuH-13" target="0bC_-t_Q4zFDjWK14RuH-16">
          <mxGeometry relative="1" as="geometry">
            <Array as="points">
              <mxPoint x="370" y="340" />
            </Array>
          </mxGeometry>
        </mxCell>
        <mxCell id="0bC_-t_Q4zFDjWK14RuH-10" value="Close" style="edgeLabel;html=1;align=center;verticalAlign=middle;resizable=0;points=[];" vertex="1" connectable="0" parent="0bC_-t_Q4zFDjWK14RuH-9">
          <mxGeometry x="-0.1471" relative="1" as="geometry">
            <mxPoint x="20" y="7.62" as="offset" />
          </mxGeometry>
        </mxCell>
        <mxCell id="0bC_-t_Q4zFDjWK14RuH-11" value="" style="edgeStyle=orthogonalEdgeStyle;rounded=0;orthogonalLoop=1;jettySize=auto;html=1;" edge="1" parent="WIyWlLk6GJQsqaUBKTNV-1" source="0bC_-t_Q4zFDjWK14RuH-13">
          <mxGeometry relative="1" as="geometry">
            <mxPoint x="220" y="170" as="targetPoint" />
            <Array as="points">
              <mxPoint x="370" y="170" />
              <mxPoint x="220" y="170" />
            </Array>
          </mxGeometry>
        </mxCell>
        <mxCell id="0bC_-t_Q4zFDjWK14RuH-12" value="busy" style="edgeLabel;html=1;align=center;verticalAlign=middle;resizable=0;points=[];" vertex="1" connectable="0" parent="0bC_-t_Q4zFDjWK14RuH-11">
          <mxGeometry x="-0.2421" y="1" relative="1" as="geometry">
            <mxPoint x="-18" y="-11" as="offset" />
          </mxGeometry>
        </mxCell>
        <mxCell id="0bC_-t_Q4zFDjWK14RuH-13" value="当时状态" style="rhombus;whiteSpace=wrap;html=1;shadow=0;fontFamily=Helvetica;fontSize=12;align=center;strokeWidth=1;spacing=6;spacingTop=-4;" vertex="1" parent="WIyWlLk6GJQsqaUBKTNV-1">
          <mxGeometry x="320" y="210" width="100" height="80" as="geometry" />
        </mxCell>
        <mxCell id="0bC_-t_Q4zFDjWK14RuH-14" value="执行关闭" style="whiteSpace=wrap;html=1;shadow=0;strokeWidth=1;spacing=6;spacingTop=-4;" vertex="1" parent="WIyWlLk6GJQsqaUBKTNV-1">
          <mxGeometry x="480" y="350" width="80" height="30" as="geometry" />
        </mxCell>
        <mxCell id="0bC_-t_Q4zFDjWK14RuH-15" value="" style="edgeStyle=orthogonalEdgeStyle;rounded=0;orthogonalLoop=1;jettySize=auto;html=1;" edge="1" parent="WIyWlLk6GJQsqaUBKTNV-1" source="0bC_-t_Q4zFDjWK14RuH-16" target="0bC_-t_Q4zFDjWK14RuH-18">
          <mxGeometry relative="1" as="geometry" />
        </mxCell>
        <mxCell id="0bC_-t_Q4zFDjWK14RuH-16" value="执行打开" style="whiteSpace=wrap;html=1;shadow=0;strokeWidth=1;spacing=6;spacingTop=-4;" vertex="1" parent="WIyWlLk6GJQsqaUBKTNV-1">
          <mxGeometry x="327.5" y="350" width="85" height="30" as="geometry" />
        </mxCell>
        <mxCell id="0bC_-t_Q4zFDjWK14RuH-17" value="" style="edgeStyle=orthogonalEdgeStyle;rounded=0;orthogonalLoop=1;jettySize=auto;html=1;" edge="1" parent="WIyWlLk6GJQsqaUBKTNV-1" source="0bC_-t_Q4zFDjWK14RuH-18" target="0bC_-t_Q4zFDjWK14RuH-20">
          <mxGeometry relative="1" as="geometry" />
        </mxCell>
        <mxCell id="0bC_-t_Q4zFDjWK14RuH-18" value="舵机设置起始位置" style="whiteSpace=wrap;html=1;shadow=0;strokeWidth=1;spacing=6;spacingTop=-4;" vertex="1" parent="WIyWlLk6GJQsqaUBKTNV-1">
          <mxGeometry x="310" y="445" width="120" height="35" as="geometry" />
        </mxCell>
        <mxCell id="0bC_-t_Q4zFDjWK14RuH-19" value="" style="edgeStyle=orthogonalEdgeStyle;rounded=0;orthogonalLoop=1;jettySize=auto;html=1;" edge="1" parent="WIyWlLk6GJQsqaUBKTNV-1" source="0bC_-t_Q4zFDjWK14RuH-20" target="0bC_-t_Q4zFDjWK14RuH-23">
          <mxGeometry relative="1" as="geometry" />
        </mxCell>
        <mxCell id="0bC_-t_Q4zFDjWK14RuH-20" value="延时" style="whiteSpace=wrap;html=1;shadow=0;strokeWidth=1;spacing=6;spacingTop=-4;" vertex="1" parent="WIyWlLk6GJQsqaUBKTNV-1">
          <mxGeometry x="320" y="510" width="100" height="22.5" as="geometry" />
        </mxCell>
        <mxCell id="0bC_-t_Q4zFDjWK14RuH-21" value="" style="edgeStyle=orthogonalEdgeStyle;rounded=0;orthogonalLoop=1;jettySize=auto;html=1;" edge="1" parent="WIyWlLk6GJQsqaUBKTNV-1" source="0bC_-t_Q4zFDjWK14RuH-23">
          <mxGeometry relative="1" as="geometry">
            <mxPoint x="130" y="330" as="targetPoint" />
          </mxGeometry>
        </mxCell>
        <mxCell id="0bC_-t_Q4zFDjWK14RuH-22" value="Yes" style="edgeLabel;html=1;align=center;verticalAlign=middle;resizable=0;points=[];" vertex="1" connectable="0" parent="0bC_-t_Q4zFDjWK14RuH-21">
          <mxGeometry x="-0.6177" y="1" relative="1" as="geometry">
            <mxPoint y="-9.14" as="offset" />
          </mxGeometry>
        </mxCell>
        <mxCell id="0bC_-t_Q4zFDjWK14RuH-23" value="达到设定结束位置" style="rhombus;whiteSpace=wrap;html=1;shadow=0;strokeWidth=1;spacing=6;spacingTop=-4;" vertex="1" parent="WIyWlLk6GJQsqaUBKTNV-1">
          <mxGeometry x="310" y="560" width="120" height="56.25" as="geometry" />
        </mxCell>
      </root>
    </mxGraphModel>
  </diagram>
</mxfile>
